<?xml version="1.0" encoding="UTF-8"?>
<svg version="1.1" xmlns="http://www.w3.org/2000/svg" width="196" height="196">
<path d="M0 0 C1.16888763 -0.00997513 2.33777527 -0.01995026 3.54208374 -0.03022766 C4.81076294 -0.03089233 6.07944214 -0.03155701 7.38656616 -0.03224182 C8.74727835 -0.03987042 10.10798626 -0.04829912 11.46868896 -0.0574646 C15.15498067 -0.07935334 18.84118944 -0.08820142 22.52753878 -0.09329104 C24.83562345 -0.09694269 27.14368669 -0.10318707 29.45176315 -0.11029243 C37.51858212 -0.1347719 45.58533697 -0.1478346 53.65219116 -0.15138245 C61.14693963 -0.15501179 68.64127711 -0.18486753 76.13590014 -0.22678703 C82.58882329 -0.26160202 89.04161103 -0.27693285 95.49462736 -0.27762848 C99.34041795 -0.2784178 103.18578995 -0.2869948 107.0314827 -0.31562614 C110.65473975 -0.3419987 114.27723697 -0.34390705 117.90054703 -0.3279705 C119.84484937 -0.32532066 121.78913821 -0.34721065 123.73330688 -0.37016296 C134.63179163 -0.28042751 144.2719269 2.59605429 152.29428101 10.25071716 C158.2734522 17.16413386 162.27596524 24.99432466 162.31843567 34.22987366 C162.3284108 35.39876129 162.33838593 36.56764893 162.34866333 37.7719574 C162.349328 39.0406366 162.34999268 40.3093158 162.35067749 41.61643982 C162.35830609 42.97715201 162.36673479 44.33785992 162.37590027 45.69856262 C162.39778901 49.38485432 162.40663709 53.07106309 162.41172671 56.75741243 C162.41537836 59.06549711 162.42162274 61.37356034 162.4287281 63.68163681 C162.45320757 71.74845577 162.46627027 79.81521062 162.46981812 87.88206482 C162.47344746 95.37681329 162.5033032 102.87115077 162.5452227 110.3657738 C162.58003769 116.81869694 162.59536852 123.27148469 162.59606415 129.72450101 C162.59685346 133.57029161 162.60543047 137.41566361 162.63406181 141.26135635 C162.66043437 144.8846134 162.66234272 148.50711062 162.64640617 152.13042068 C162.64375633 154.07472303 162.66564632 156.01901187 162.68859863 157.96318054 C162.59886317 168.86166529 159.72238138 178.50180056 152.06771851 186.52415466 C145.15430181 192.50332586 137.32411101 196.5058389 128.08856201 196.54830933 C126.91967438 196.55828445 125.75078674 196.56825958 124.54647827 196.57853699 C123.27779907 196.57920166 122.00911987 196.57986633 120.70199585 196.58055115 C119.34128366 196.58817975 117.98057575 196.59660845 116.61987305 196.60577393 C112.93358134 196.62766266 109.24737258 196.63651075 105.56102324 196.64160037 C103.25293856 196.64525202 100.94487533 196.6514964 98.63679886 196.65860176 C90.56997989 196.68308122 82.50322505 196.69614393 74.43637085 196.69969177 C66.94162238 196.70332111 59.4472849 196.73317686 51.95266187 196.77509636 C45.49973873 196.80991135 39.04695098 196.82524218 32.59393466 196.82593781 C28.74814406 196.82672712 24.90277206 196.83530413 21.05707932 196.86393547 C17.43382227 196.89030803 13.81132504 196.89221638 10.18801498 196.87627983 C8.24371264 196.87362999 6.2994238 196.89551997 4.35525513 196.91847229 C-6.54322962 196.82873683 -16.18336489 193.95225504 -24.20571899 186.29759216 C-30.18489019 179.38417547 -34.18740323 171.55398466 -34.22987366 162.31843567 C-34.23984879 161.14954803 -34.24982391 159.9806604 -34.26010132 158.77635193 C-34.26076599 157.50767273 -34.26143066 156.23899353 -34.26211548 154.93186951 C-34.26974408 153.57115732 -34.27817278 152.21044941 -34.28733826 150.8497467 C-34.309227 147.163455 -34.31807508 143.47724623 -34.3231647 139.79089689 C-34.32681635 137.48281222 -34.33306073 135.17474898 -34.34016609 132.86667252 C-34.36464556 124.79985355 -34.37770826 116.7330987 -34.3812561 108.66624451 C-34.38488545 101.17149604 -34.41474119 93.67715856 -34.45666069 86.18253553 C-34.49147568 79.72961238 -34.50680651 73.27682464 -34.50750214 66.82380831 C-34.50829145 62.97801772 -34.51686846 59.13264572 -34.5454998 55.28695297 C-34.57187236 51.66369592 -34.57378071 48.0411987 -34.55784416 44.41788864 C-34.55519432 42.47358629 -34.57708431 40.52929746 -34.60003662 38.58512878 C-34.51030116 27.68664403 -31.63381937 18.04650877 -23.97915649 10.02415466 C-17.0657398 4.04498347 -9.23554899 0.04247043 0 0 Z " fill="#020203" transform="translate(33.955718994140625,-0.2741546630859375)"/>
<path d="M0 0 C4.95 0 9.9 0 15 0 C15.80050781 2.52720703 15.80050781 2.52720703 16.6171875 5.10546875 C22.15300746 22.49766155 27.97803074 39.77052953 34 57 C36.61870822 49.79918248 39.21666003 42.6410294 41.25 35.25 C44.62358755 23.32673255 48.88475207 11.68228333 53 0 C57.29 0 61.58 0 66 0 C68.40234375 7.20703125 70.8046875 14.4140625 73.20703125 21.62109375 C73.46788513 22.40333313 73.72873901 23.18557251 73.99749756 23.99151611 C74.52647668 25.57910608 75.05467131 27.16695764 75.58209229 28.75506592 C76.94882189 32.86696568 78.33020417 36.9730127 79.73730469 41.07128906 C80.0160141 41.88937042 80.29472351 42.70745178 80.58187866 43.55032349 C81.11325995 45.10887907 81.64933438 46.66584506 82.19082642 48.22091675 C83.37198743 51.70038836 84 54.28262109 84 58 C84.66 58 85.32 58 86 58 C86.10014404 57.40646729 86.20028809 56.81293457 86.3034668 56.20141602 C87.52511126 49.51003255 89.48560679 43.31839206 91.8125 36.9375 C94.5714274 29.21013081 97.16355362 21.48514199 99.36450195 13.57983398 C100.66741919 8.93770371 102.2634596 4.49311168 104 0 C108.95 0 113.9 0 119 0 C112.95568276 18.31988936 106.87066243 36.61056808 100.3190918 54.75634766 C97.71422183 61.97321521 95.20786278 69.2099318 92.83984375 76.5078125 C92 79 92 79 91 81 C87.04 81 83.08 81 79 81 C76.23115632 74.21841124 73.69865033 67.4102875 71.36328125 60.46875 C71.03837204 59.51101685 70.71346283 58.55328369 70.37870789 57.56652832 C69.35407304 54.54521386 68.33302504 51.52270487 67.3125 48.5 C66.28080382 45.44889011 65.24831791 42.39805374 64.2141571 39.34777832 C63.57379091 37.45857039 62.93491601 35.56885617 62.29768372 33.67858887 C61.86669624 32.40586121 61.86669624 32.40586121 61.42700195 31.10742188 C61.174814 30.36036987 60.92262604 29.61331787 60.66279602 28.84362793 C60.01994627 26.94134943 60.01994627 26.94134943 59 25 C56.9364185 31.04634718 54.87350657 37.09292251 52.81103516 43.13964844 C52.11098989 45.19178296 51.41079774 47.24386739 50.71044922 49.29589844 C47.10740631 59.85317394 43.50590749 70.40999078 40 81 C35.71 81 31.42 81 27 81 C26.46632813 79.4543335 25.93265625 77.90866699 25.3828125 76.31616211 C23.58296298 71.10348443 21.78286796 65.89089157 19.98262024 60.6783514 C18.89534359 57.53016126 17.80818218 54.38193144 16.72119141 51.23364258 C15.87906309 48.79459306 15.03677817 46.35559761 14.19433594 43.91665649 C13.35721179 41.49266741 12.52062222 39.06849364 11.68457031 36.64413452 C9.67119426 30.81104762 7.64569224 24.98281695 5.58984375 19.16455078 C5.02825562 17.56976646 5.02825562 17.56976646 4.45532227 15.94276428 C3.75273486 13.95018471 3.04639246 11.95892381 2.33569336 9.96922302 C2.02639893 9.0906514 1.71710449 8.21207977 1.3984375 7.30688477 C1.12692871 6.54320084 0.85541992 5.77951691 0.57568359 4.99269104 C0 3 0 3 0 0 Z " fill="#FAFAFA" transform="translate(39,61)"/>
</svg>
